<svg width="20" height="20" viewBox="0 0 20 20" fill="none" xmlns="http://www.w3.org/2000/svg">
<path d="M9 4H3.55556C3.143 4 2.74733 4.16389 2.45561 4.45561C2.16389 4.74733 2 5.143 2 5.55556V16.4444C2 16.857 2.16389 17.2527 2.45561 17.5444C2.74733 17.8361 3.143 18 3.55556 18H14.4444C14.857 18 15.2527 17.8361 15.5444 17.5444C15.8361 17.2527 16 16.857 16 16.4444V11" stroke="white" stroke-width="1.5" stroke-linecap="round" stroke-linejoin="round"/>
<path d="M15.1791 2.48399C15.489 2.1741 15.9093 2 16.3476 2C16.7858 2 17.2061 2.1741 17.516 2.48399C17.8259 2.79388 18 3.21418 18 3.65243C18 4.09068 17.8259 4.51099 17.516 4.82088L10.1159 12.221L7 13L7.77896 9.88414L15.1791 2.48399Z" stroke="white" stroke-width="1.5" stroke-linecap="round" stroke-linejoin="round"/>
</svg>
