<svg width="20" height="20" viewBox="0 0 20 20" fill="none" xmlns="http://www.w3.org/2000/svg">
<path d="M9.99984 10.8334C10.4601 10.8334 10.8332 10.4603 10.8332 10C10.8332 9.53978 10.4601 9.16669 9.99984 9.16669C9.5396 9.16669 9.1665 9.53978 9.1665 10C9.1665 10.4603 9.5396 10.8334 9.99984 10.8334Z" stroke="white" stroke-width="2" stroke-linecap="round" stroke-linejoin="round"/>
<path d="M15.8333 10.8334C16.2936 10.8334 16.6667 10.4603 16.6667 10C16.6667 9.53978 16.2936 9.16669 15.8333 9.16669C15.3731 9.16669 15 9.53978 15 10C15 10.4603 15.3731 10.8334 15.8333 10.8334Z" stroke="white" stroke-width="2" stroke-linecap="round" stroke-linejoin="round"/>
<path d="M4.16683 10.8334C4.62707 10.8334 5.00016 10.4603 5.00016 10C5.00016 9.53978 4.62707 9.16669 4.16683 9.16669C3.70659 9.16669 3.3335 9.53978 3.3335 10C3.3335 10.4603 3.70659 10.8334 4.16683 10.8334Z" stroke="white" stroke-width="2" stroke-linecap="round" stroke-linejoin="round"/>
</svg>
